/* XPM */
static char * maximize_active_xpm[] = {
"20 24 37 1",
" 	c None",
".	c #939393",
"+	c #FFFFFF",
"@	c #DEDEDE s active_color_2",
"#	c #B0B0B0",
"$	c #878787",
"%	c #EBEBEB",
"&	c #C7C7C7",
"*	c #9E9E9E",
"=	c #D4D4D4",
"-	c #A9A9A9",
";	c #A6A6A6",
">	c #B1B1B1",
",	c #ACACAC",
"'	c #B9B9B9",
")	c #CECECE",
"!	c #AEAEAE",
"~	c #E8E8E8",
"{	c #C6C6C6",
"]	c #EDEDED",
"^	c #D6D6D6",
"/	c #B5B5B5",
"(	c #9F9F9F",
"_	c #D0D0D0",
":	c #E2E2E2",
"<	c #F2F2F2",
"[	c #E0E0E0",
"}	c #989898",
"|	c #B6B6B6",
"1	c #A1A1A1",
"2	c #9C9C9C",
"3	c #A7A7A7",
"4	c #A5A5A5",
"5	c #B7B7B7",
"6	c #B2B2B2",
"7	c #C3C3C3",
"8	c #F8F8F8",
"....................",
"++++++++++++++++++++",
"@@@@@@@@@@@@@@@@@@@@",
"@@@@@@@@@@@@@@@@@@@@",
"@@@@@@@@@@@@@@@@@@@@",
"@@@@@@@@@@@@@@@@@@@@",
"@@@@@@@@@@@@@@@@@@@@",
"@@@@@@@@@@@@@@@@@@@@",
"@@@@@@@@@@#$$$$@@@@@",
"@@@@@@@@@@%&***@@@@@",
"@@@@@@@@@@=-;;;@@@@@",
"@@@@@@@@@@>,')!@@@@@",
"@@@@@@@@@@~{]]^@@@@@",
"@@@@@/@^(_:<[@%@@@@@",
"@@@@@}|123@@@@@@@@@@",
"@@@@@-145%@@@@@@@@@@",
"@@@@@>>>)[@@@@@@@@@@",
"@@@@@'''67@@@@@@@@@@",
"@@@@@8888%@@@@@@@@@@",
"@@@@@@@@@@@@@@@@@@@@",
"@@@@@@@@@@@@@@@@@@@@",
"@@@@@@@@@@@@@@@@@@@@",
"@@@@@@@@@@@@@@@@@@@@",
"@@@@@@@@@@@@@@@@@@@@"};
