/* XPM */
static char * maximize_inactive_xpm[] = {
"20 24 34 1",
" 	c None",
".	c #939393",
"+	c #FFFFFF",
"@	c #DEDEDE s active_color_2",
"#	c #C7C7C7",
"$	c #B2B2B2",
"%	c #E4E4E4",
"&	c #D2D2D2",
"*	c #BEBEBE",
"=	c #D8D8D8",
"-	c #C3C3C3",
";	c #C2C2C2",
">	c #C5C5C5",
",	c #CBCBCB",
"'	c #D6D6D6",
")	c #C6C6C6",
"!	c #E2E2E2",
"~	c #E5E5E5",
"{	c #DADADA",
"]	c #CACACA",
"^	c #D9D9D9",
"/	c #D7D7D7",
"(	c #E0E0E0",
"_	c #E8E8E8",
":	c #DFDFDF",
"<	c #BBBBBB",
"[	c #BFBFBF",
"}	c #BDBDBD",
"|	c #C1C1C1",
"1	c #D5D5D5",
"2	c #CCCCCC",
"3	c #C8C8C8",
"4	c #D1D1D1",
"5	c #EBEBEB",
"....................",
"++++++++++++++++++++",
"@@@@@@@@@@@@@@@@@@@@",
"@@@@@@@@@@@@@@@@@@@@",
"@@@@@@@@@@@@@@@@@@@@",
"@@@@@@@@@@@@@@@@@@@@",
"@@@@@@@@@@@@@@@@@@@@",
"@@@@@@@@@@@@@@@@@@@@",
"@@@@@@@@@@#$$$$@@@@@",
"@@@@@@@@@@%&***@@@@@",
"@@@@@@@@@@=-;;;@@@@@",
"@@@@@@@@@@#>,')@@@@@",
"@@@@@@@@@@!&~~{@@@@@",
"@@@@@]@^*/(_:@%@@@@@",
"@@@@@<][}-@@@@@@@@@@",
"@@@@@-[|]~@@@@@@@@@@",
"@@@@@###1:@@@@@@@@@@",
"@@@@@22234@@@@@@@@@@",
"@@@@@5555%@@@@@@@@@@",
"@@@@@@@@@@@@@@@@@@@@",
"@@@@@@@@@@@@@@@@@@@@",
"@@@@@@@@@@@@@@@@@@@@",
"@@@@@@@@@@@@@@@@@@@@",
"@@@@@@@@@@@@@@@@@@@@"};
