/* XPM */
static char * maximize_toggled_pressed_xpm[] = {
"20 24 37 1",
" 	c None",
".	c #939393",
"+	c #FFFFFF",
"@	c #DEDEDE s active_color_2",
"#	c #89A9CB",
"$	c #CDD3DA",
"%	c #5F8EC2",
"&	c #C3CDD7",
"*	c #368AE6",
"=	c #81AFE2",
"-	c #5097E4",
";	c #61A0E4",
">	c #44A3E8",
",	c #63B1EA",
"'	c #E3EAF0",
")	c #52BDEB",
"!	c #9DD6EE",
"~	c #E0E0E0",
"{	c #7AD1EC",
"]	c #ABD7E4",
"^	c #80A3CA",
"/	c #2F70B9",
"(	c #F8F8F8",
"_	c #EBEBEB",
":	c #ECECEC",
"<	c #8DBBEE",
"[	c #D1D8DE",
"}	c #62B0E8",
"|	c #77C6E7",
"1	c #71C7ED",
"2	c #A1D8F1",
"3	c #DCEBF0",
"4	c #97DAEE",
"5	c #E9F0F2",
"6	c #B7E3F1",
"7	c #E2E2E2",
"8	c #F2F2F2",
"....................",
"++++++++++++++++++++",
"@@@@@@@@@@@@@@@@@@@@",
"@@@@@@@@@@@@@@@@@@@@",
"@@@@@@@@@@@@@@@@@@@@",
"@@@@@@@@@@@@@@@@@@@@",
"@@@@@@@@@@@@@@@@@@@@",
"@@@@@@@@@@@@@@@@@@@@",
"@@@@@@@@@@#@$%&@@@@@",
"@@@@@@@@@@*=-*;@@@@@",
"@@@@@@@@@@>>>,'@@@@@",
"@@@@@@@@@@)))!~@@@@@",
"@@@@@@@@@@{{{{]@@@@@",
"@@@@@^////((((_@@@@@",
"@@@@@:<***@@@@@@@@@@",
"@@@@@[}>>>@@@@@@@@@@",
"@@@@@|)12)@@@@@@@@@@",
"@@@@@345_6@@@@@@@@@@",
"@@@@@78~@_@@@@@@@@@@",
"@@@@@@@@@@@@@@@@@@@@",
"@@@@@@@@@@@@@@@@@@@@",
"@@@@@@@@@@@@@@@@@@@@",
"@@@@@@@@@@@@@@@@@@@@",
"@@@@@@@@@@@@@@@@@@@@"};
