/* XPM */
static char * maximize_prelight_xpm[] = {
"20 24 51 1",
" 	c None",
".	c #939393",
"+	c #FFFFFF",
"@	c #DEDEDE s active_color_2",
"#	c #D8D8D8",
"$	c #BCBCBC",
"%	c #B2B2B2",
"&	c #B1B1B1",
"*	c #D4D4D4",
"=	c #EAEAEA",
"-	c #EBEBEB",
";	c #D3D3D3",
">	c #BDBDBD",
",	c #E3E3E3",
"'	c #B0B0B0",
")	c #878787",
"!	c #888888",
"~	c #E2E2E2",
"{	c #C7C7C7",
"]	c #9E9E9E",
"^	c #A9A9A9",
"/	c #A6A6A6",
"(	c #ACACAC",
"_	c #B9B9B9",
":	c #CECECE",
"<	c #AEAEAE",
"[	c #E8E8E8",
"}	c #C6C6C6",
"|	c #EDEDED",
"1	c #D6D6D6",
"2	c #B5B5B5",
"3	c #9F9F9F",
"4	c #D0D0D0",
"5	c #F2F2F2",
"6	c #E0E0E0",
"7	c #989898",
"8	c #B6B6B6",
"9	c #A1A1A1",
"0	c #9C9C9C",
"a	c #A7A7A7",
"b	c #A5A5A5",
"c	c #B7B7B7",
"d	c #DDDDDD",
"e	c #C3C3C3",
"f	c #DCDCDC",
"g	c #BEBEBE",
"h	c #C8C8C8",
"i	c #F8F8F8",
"j	c #BFBFBF",
"k	c #C1C1C1",
"l	c #E9E9E9",
"....................",
"++++++++++++++++++++",
"@@@@@@@@@@@@@@@@@@@@",
"@@@@@@@@@@@@@@@@@@@@",
"@@@@@@@@@@@@@@@@@@@@",
"@@@@@@@@@@@@@@@@@@@@",
"@@@#$%&&&&&&&&%$#@@@",
"@@@$*=--------=;>@@@",
"@@@%,@@@@@')))!~%@@@",
"@@@&@@@@@@-{]]]@&@@@",
"@@@&@@@@@@*^///@&@@@",
"@@@&@@@@@@&(_:<@&@@@",
"@@@&@@@@@@[}||1@&@@@",
"@@@&@2@134~56@-@&@@@",
"@@@&@7890a@@@@@@&@@@",
"@@@&@^9bc-@@@@@@&@@@",
"@@@&@&&&:6@@@@@@&@@@",
"@@@%d___%e@@@@@f%@@@",
"@@6ghiiii-@@@@d{j6@@",
"@@66k%&&&&&&&&%k66@@",
"@@@~l----------[~@@@",
"@@@@@@@@@@@@@@@@@@@@",
"@@@@@@@@@@@@@@@@@@@@",
"@@@@@@@@@@@@@@@@@@@@"};
