/* XPM */
static char * maximize_toggled_prelight_xpm[] = {
"20 24 53 1",
" 	c None",
".	c #939393",
"+	c #FFFFFF",
"@	c #DEDEDE s active_color_2",
"#	c #D8D8D8",
"$	c #BCBCBC",
"%	c #B2B2B2",
"&	c #B1B1B1",
"*	c #D4D4D4",
"=	c #EAEAEA",
"-	c #EBEBEB",
";	c #D3D3D3",
">	c #BDBDBD",
",	c #E3E3E3",
"'	c #B4B4B4",
")	c #D6D6D6",
"!	c #A0A0A0",
"~	c #D1D1D1",
"{	c #E2E2E2",
"]	c #989898",
"^	c #9E9E9E",
"/	c #9C9C9C",
"(	c #A7A7A7",
"_	c #A9A9A9",
":	c #A2A2A2",
"<	c #A6A6A6",
"[	c #B7B7B7",
"}	c #CFCFCF",
"|	c #E0E0E0",
"1	c #B9B9B9",
"2	c #C3C3C3",
"3	c #B0B0B0",
"4	c #898989",
"5	c #F8F8F8",
"6	c #ECECEC",
"7	c #C8C8C8",
"8	c #A1A1A1",
"9	c #D9D9D9",
"0	c #AFAFAF",
"a	c #B3B3B3",
"b	c #AEAEAE",
"c	c #BEBEBE",
"d	c #DDDDDD",
"e	c #E6E6E6",
"f	c #EDEDED",
"g	c #DCDCDC",
"h	c #E1E1E1",
"i	c #F2F2F2",
"j	c #C7C7C7",
"k	c #BFBFBF",
"l	c #C1C1C1",
"m	c #E9E9E9",
"n	c #E8E8E8",
"....................",
"++++++++++++++++++++",
"@@@@@@@@@@@@@@@@@@@@",
"@@@@@@@@@@@@@@@@@@@@",
"@@@@@@@@@@@@@@@@@@@@",
"@@@@@@@@@@@@@@@@@@@@",
"@@@#$%&&&&&&&&%$#@@@",
"@@@$*=--------=;>@@@",
"@@@%,@@@@@'@)!~{%@@@",
"@@@&@@@@@@]'^/(@&@@@",
"@@@&@@@@@@_:<[-@&@@@",
"@@@&@@@@@@&&&}|@&@@@",
"@@@&@@@@@@111&2@&@@@",
"@@@&@344445555-@&@@@",
"@@@&@67888@@@@@@&@@@",
"@@@&@90___@@@@@@&@@@",
"@@@&@abc;&@@@@@@&@@@",
"@@@%de7f-#@@@@@g%@@@",
"@@|c7hi|@-@@@@djk|@@",
"@@||l%&&&&&&&&%l||@@",
"@@@{m----------n{@@@",
"@@@@@@@@@@@@@@@@@@@@",
"@@@@@@@@@@@@@@@@@@@@",
"@@@@@@@@@@@@@@@@@@@@"};
