/* XPM */
static char * maximize_pressed_xpm[] = {
"20 24 40 1",
" 	c None",
".	c #939393",
"+	c #FFFFFF",
"@	c #DEDEDE s active_color_2",
"#	c #83A5CC",
"$	c #2F72BC",
"%	c #EBEBEB",
"&	c #8DBCEE",
"*	c #378BE6",
"=	c #CBD6DF",
"-	c #58ABE9",
";	c #44A3E8",
">	c #74C4E8",
",	c #51BBEB",
"'	c #69C3EC",
")	c #99D4F1",
"!	c #DDECF1",
"~	c #92D8EE",
"{	c #E6F0F3",
"]	c #EDEDED",
"^	c #B2E2F1",
"/	c #8CACCF",
"(	c #CED4DA",
"_	c #5F8FC6",
":	c #C2CDD9",
"<	c #E2E2E2",
"[	c #F2F2F2",
"}	c #E0E0E0",
"|	c #388CE6",
"1	c #89B3E2",
"2	c #569CE5",
"3	c #63A1E4",
"4	c #45A5E9",
"5	c #66B4EB",
"6	c #E1EAF0",
"7	c #53BEEB",
"8	c #9DD6EE",
"9	c #7BD1EC",
"0	c #ABD6E5",
"a	c #F8F8F8",
"....................",
"++++++++++++++++++++",
"@@@@@@@@@@@@@@@@@@@@",
"@@@@@@@@@@@@@@@@@@@@",
"@@@@@@@@@@@@@@@@@@@@",
"@@@@@@@@@@@@@@@@@@@@",
"@@@@@@@@@@@@@@@@@@@@",
"@@@@@@@@@@@@@@@@@@@@",
"@@@@@@@@@@#$$$$@@@@@",
"@@@@@@@@@@%&***@@@@@",
"@@@@@@@@@@=-;;;@@@@@",
"@@@@@@@@@@>,'),@@@@@",
"@@@@@@@@@@!~{]^@@@@@",
"@@@@@/@(_:<[}@%@@@@@",
"@@@@@|12|3@@@@@@@@@@",
"@@@@@44456@@@@@@@@@@",
"@@@@@7778}@@@@@@@@@@",
"@@@@@99990@@@@@@@@@@",
"@@@@@aaaa%@@@@@@@@@@",
"@@@@@@@@@@@@@@@@@@@@",
"@@@@@@@@@@@@@@@@@@@@",
"@@@@@@@@@@@@@@@@@@@@",
"@@@@@@@@@@@@@@@@@@@@",
"@@@@@@@@@@@@@@@@@@@@"};
