/* XPM */
static char * maximize_toggled_active_xpm[] = {
"20 24 39 1",
" 	c None",
".	c #939393",
"+	c #FFFFFF",
"@	c #DEDEDE s active_color_2",
"#	c #B4B4B4",
"$	c #D6D6D6",
"%	c #A0A0A0",
"&	c #D0D0D0",
"*	c #989898",
"=	c #9E9E9E",
"-	c #9C9C9C",
";	c #A7A7A7",
">	c #A9A9A9",
",	c #A2A2A2",
"'	c #A6A6A6",
")	c #B7B7B7",
"!	c #EBEBEB",
"~	c #B1B1B1",
"{	c #CFCFCF",
"]	c #E0E0E0",
"^	c #B9B9B9",
"/	c #C3C3C3",
"(	c #B0B0B0",
"_	c #898989",
":	c #F8F8F8",
"<	c #ECECEC",
"[	c #C8C8C8",
"}	c #A1A1A1",
"|	c #D9D9D9",
"1	c #AFAFAF",
"2	c #B3B3B3",
"3	c #AEAEAE",
"4	c #BEBEBE",
"5	c #D3D3D3",
"6	c #E6E6E6",
"7	c #EDEDED",
"8	c #D8D8D8",
"9	c #E2E2E2",
"0	c #F2F2F2",
"....................",
"++++++++++++++++++++",
"@@@@@@@@@@@@@@@@@@@@",
"@@@@@@@@@@@@@@@@@@@@",
"@@@@@@@@@@@@@@@@@@@@",
"@@@@@@@@@@@@@@@@@@@@",
"@@@@@@@@@@@@@@@@@@@@",
"@@@@@@@@@@@@@@@@@@@@",
"@@@@@@@@@@#@$%&@@@@@",
"@@@@@@@@@@*#=-;@@@@@",
"@@@@@@@@@@>,')!@@@@@",
"@@@@@@@@@@~~~{]@@@@@",
"@@@@@@@@@@^^^~/@@@@@",
"@@@@@(____::::!@@@@@",
"@@@@@<[}}}@@@@@@@@@@",
"@@@@@|1>>>@@@@@@@@@@",
"@@@@@2345~@@@@@@@@@@",
"@@@@@6[7!8@@@@@@@@@@",
"@@@@@90]@!@@@@@@@@@@",
"@@@@@@@@@@@@@@@@@@@@",
"@@@@@@@@@@@@@@@@@@@@",
"@@@@@@@@@@@@@@@@@@@@",
"@@@@@@@@@@@@@@@@@@@@",
"@@@@@@@@@@@@@@@@@@@@"};
