/* XPM */
static char * maximize_toggled_inactive_xpm[] = {
"20 24 34 1",
" 	c None",
".	c #939393",
"+	c #FFFFFF",
"@	c #DEDEDE s active_color_2",
"#	c #C9C9C9",
"$	c #D9D9D9",
"%	c #BEBEBE",
"&	c #D7D7D7",
"*	c #BBBBBB",
"=	c #BDBDBD",
"-	c #C2C2C2",
";	c #C3C3C3",
">	c #C0C0C0",
",	c #CACACA",
"'	c #E5E5E5",
")	c #C7C7C7",
"!	c #DFDFDF",
"~	c #CBCBCB",
"{	c #D0D0D0",
"]	c #B3B3B3",
"^	c #EBEBEB",
"/	c #E4E4E4",
"(	c #D2D2D2",
"_	c #BFBFBF",
":	c #DBDBDB",
"<	c #C6C6C6",
"[	c #C8C8C8",
"}	c #CECECE",
"|	c #D8D8D8",
"1	c #E2E2E2",
"2	c #D3D3D3",
"3	c #E6E6E6",
"4	c #E0E0E0",
"5	c #E8E8E8",
"....................",
"++++++++++++++++++++",
"@@@@@@@@@@@@@@@@@@@@",
"@@@@@@@@@@@@@@@@@@@@",
"@@@@@@@@@@@@@@@@@@@@",
"@@@@@@@@@@@@@@@@@@@@",
"@@@@@@@@@@@@@@@@@@@@",
"@@@@@@@@@@@@@@@@@@@@",
"@@@@@@@@@@#@$%&@@@@@",
"@@@@@@@@@@*#%=-@@@@@",
"@@@@@@@@@@;>-,'@@@@@",
"@@@@@@@@@@)))&!@@@@@",
"@@@@@@@@@@~~~){@@@@@",
"@@@@@)]]]]^^^^/@@@@@",
"@@@@@'(___@@@@@@@@@@",
"@@@@@:<;;;@@@@@@@@@@",
"@@@@@[<}|)@@@@@@@@@@",
"@@@@@123/:@@@@@@@@@@",
"@@@@@45!@/@@@@@@@@@@",
"@@@@@@@@@@@@@@@@@@@@",
"@@@@@@@@@@@@@@@@@@@@",
"@@@@@@@@@@@@@@@@@@@@",
"@@@@@@@@@@@@@@@@@@@@",
"@@@@@@@@@@@@@@@@@@@@"};
