/* XPM */
static char * title_1_active_xpm[] = {
"1 23 16 1",
" 	c None",
".	c #8D8D8D",
"+	c #FFFFFF",
"@	c #E5E5E5",
"#	c #E4E4E4",
"$	c #E3E3E3",
"%	c #E2E2E2",
"&	c #E1E1E1",
"*	c #E0E0E0",
"=	c #DFDFDF",
"-	c #DEDEDE",
";	c #DDDDDD",
">	c #DCDCDC",
",	c #DBDBDB",
"'	c #DADADA",
")	c #D9D9D9",
".",
"+",
"@",
"#",
"#",
"$",
"$",
"%",
"&",
"&",
"*",
"*",
"=",
"-",
"-",
";",
";",
">",
",",
",",
"'",
"'",
")"};
